<svg xmlns="http://www.w3.org/2000/svg" xmlns:xlink="http://www.w3.org/1999/xlink" width="52" height="30" viewBox="0 0 52 30"><defs><clipPath id="a"><rect width="52" height="30" transform="translate(170 25)" fill="#fff"/></clipPath></defs><g transform="translate(-170 -25)" clip-path="url(#a)"><path d="M43.965,5.907h7.924L47.957,22.578H40.044L43.965,5.907Zm-10.147,0h7.913L37.893,21.878c-.926,3.869-3.6,7.965-9.1,7.965H16.931l1.821-5.413h5.454c2.573,0,5.444-1.42,6.071-3.993l3.54-14.53ZM32.882,0h-8.15l-3.8,16c-.37,1.554-.885,2.449-2.737,2.449H11.271c-1.574,0-1.533-.926-1.2-2.264l1.07-4.425c.268-1.1.628-1.6,2.089-1.6h6.823L21.068,5.9H7.814c-3.139,0-5.032,1.513-5.773,4.631L.25,18.009c-.741,3.128.412,4.569,2.676,4.569H22.292c4.065,0,5.639-1.585,6.349-4.6Z" transform="translate(169.974 25)" fill="#fff"/></g></svg>