<svg id="search" xmlns="http://www.w3.org/2000/svg" width="24" height="24" viewBox="0 0 24 24">
  <path id="패스_359" data-name="패스 359" d="M0,0H24V24H0Z" fill="none" fill-rule="evenodd"/>
  <path id="패스_360" data-name="패스 360" d="M15.992,14.761,20,18.615a1.024,1.024,0,0,1-1.6,0l-3.208-3.085A6.937,6.937,0,0,1,10.8,17.077,6.673,6.673,0,0,1,4,10.538,6.673,6.673,0,0,1,10.8,4a6.673,6.673,0,0,1,6.8,6.538A6.367,6.367,0,0,1,15.992,14.761ZM10.8,15.923a5.5,5.5,0,0,0,5.6-5.385,5.5,5.5,0,0,0-5.6-5.385,5.5,5.5,0,0,0-5.6,5.385A5.5,5.5,0,0,0,10.8,15.923Z" fill="#fff" fill-rule="evenodd"/>
</svg>
